<?xml version="1.0" standalone="no"?><!DOCTYPE svg PUBLIC "-//W3C//DTD SVG 1.1//EN" "http://www.w3.org/Graphics/SVG/1.1/DTD/svg11.dtd"><svg t="1714230226747" class="icon" viewBox="0 0 1024 1024" version="1.1" xmlns="http://www.w3.org/2000/svg" p-id="5911" width="16" height="16" xmlns:xlink="http://www.w3.org/1999/xlink"><path d="M507.493 671.396c-19.395 0-37.647-7.526-51.37-21.201l-202.223-202.256c-7.65-7.65-11.863-17.822-11.863-28.639s4.212-20.99 11.863-28.639 17.821-11.861 28.639-11.861c10.817 0 20.99 4.21 28.639 11.861l196.302 196.321 196.348-196.321c7.65-7.65 17.821-11.861 28.639-11.861s20.99 4.21 28.639 11.861c15.794 15.794 15.794 41.484 0 57.283l-202.218 202.202c-13.707 13.706-31.956 21.25-51.395 21.25z" fill="#e6e6e6" p-id="5912"></path><path d="M507.499 663.33c-22.331 0-40.5-18.163-40.5-40.505v-514.196c0-22.334 18.163-40.505 40.5-40.505s40.505 18.164 40.505 40.505v514.196c0 22.337-18.164 40.505-40.505 40.505z" fill="#e6e6e6" p-id="5913"></path><path d="M207.55 984.711c-93.221 0-169.055-75.837-169.055-169.055v-471.348c0-93.22 75.837-169.055 169.055-169.055 22.331 0 40.5 18.163 40.5 40.5s-18.163 40.5-40.5 40.5c-48.556 0-88.052 39.5-88.052 88.052v471.348c0 48.551 39.499 88.052 88.052 88.052h599.901c48.551 0 88.052-39.5 88.052-88.052v-471.348c0-48.551-39.5-88.052-88.052-88.052-22.331 0-40.5-18.163-40.5-40.5s18.163-40.5 40.5-40.5c93.221 0 169.055 75.837 169.055 169.055v471.348c0 93.221-75.837 169.055-169.055 169.055h-599.901z" fill="#e6e6e6" p-id="5914"></path></svg>